<svg xmlns="http://www.w3.org/2000/svg" xmlns:xlink="http://www.w3.org/1999/xlink" version="1.1" id="Layer_1" x="0px" y="0px" viewBox="0 0 306.324 306.324" style="enable-background:new 0 0 306.324 306.324;" xml:space="preserve"><g id="XMLID_900_"><g id="XMLID_901_"><path id="XMLID_902_" style="fill:#B3404A;" d="M123.053,246.163c-32.876,0-63.785-12.803-87.032-36.049 c-47.989-47.99-47.989-126.074,0-174.064C59.268,12.802,90.177,0,123.053,0s63.784,12.802,87.031,36.05 c23.247,23.247,36.05,54.155,36.05,87.032c0,32.876-12.803,63.785-36.05,87.032C186.837,233.36,155.929,246.163,123.053,246.163z M123.053,20c-27.534,0-53.42,10.722-72.89,30.192c-40.191,40.191-40.191,105.587,0,145.779 c19.47,19.47,45.355,30.192,72.89,30.192s53.42-10.722,72.889-30.191c19.47-19.47,30.192-45.356,30.192-72.89 s-10.723-53.42-30.192-72.89S150.587,20,123.053,20z"/></g><g id="XMLID_905_"><path id="XMLID_37_" style="fill:#F4B2B0;" d="M203.013,203.042c-9.796,9.796-20.944,17.414-32.84,22.864l58.929,58.929 c15.319,15.319,40.385,15.319,55.704,0s15.319-40.385,0-55.704l-58.929-58.929C220.427,182.098,212.809,193.246,203.013,203.042z"/><path id="XMLID_906_" style="fill:#B3404A;" d="M256.953,306.324c-13.223,0-25.625-5.121-34.923-14.418l-69.1-69.1l13.077-5.991 c11.133-5.101,21.204-12.113,29.934-20.843c8.731-8.732,15.745-18.803,20.844-29.935l5.991-13.078l69.101,69.101 c9.297,9.297,14.418,21.7,14.418,34.922c0,13.223-5.121,25.626-14.418,34.923C282.579,301.203,270.177,306.324,256.953,306.324z M186.804,228.395l49.369,49.369c5.52,5.521,12.9,8.561,20.78,8.561c7.882,0,15.262-3.04,20.781-8.56 c5.521-5.52,8.561-12.9,8.561-20.781c0-7.88-3.04-15.261-8.561-20.78l-49.368-49.369c-5.107,8.428-11.226,16.223-18.282,23.28 C203.028,217.169,195.234,223.288,186.804,228.395z"/></g><g id="XMLID_909_"><path id="XMLID_910_" style="fill:#B3404A;" d="M123.053,207.172c-22.462,0-43.579-8.747-59.462-24.629 c-15.883-15.883-24.63-37-24.63-59.462s8.747-43.579,24.63-59.461l14.143,14.143c-12.105,12.105-18.772,28.2-18.772,45.319 c0,17.12,6.667,33.214,18.772,45.319c12.105,12.105,28.2,18.772,45.319,18.772s33.214-6.667,45.318-18.771 c12.105-12.105,18.772-28.2,18.772-45.32c0-17.119-6.667-33.214-18.772-45.319l14.143-14.143c15.883,15.883,24.63,37,24.63,59.461 s-8.747,43.579-24.63,59.462C166.631,198.425,145.515,207.172,123.053,207.172z"/></g></g><g></g><g></g><g></g><g></g><g></g><g></g><g></g><g></g><g></g><g></g><g></g><g></g><g></g><g></g><g></g></svg>